<?xml version="1.0" standalone="no"?>
<!DOCTYPE svg PUBLIC "-//W3C//DTD SVG 20010904//EN"
 "http://www.w3.org/TR/2001/REC-SVG-20010904/DTD/svg10.dtd">
<svg version="1.0" xmlns="http://www.w3.org/2000/svg"
 width="512.000000pt" height="512.000000pt" viewBox="0 0 512.000000 512.000000"
 preserveAspectRatio="xMidYMid meet">
<metadata>
Created by potrace 1.14, written by Peter Selinger 2001-2017
</metadata>
<g transform="translate(0.000000,512.000000) scale(0.100000,-0.100000)"
fill="#000000" stroke="none">
<path d="M1710 4621 c-23 -18 -25 -27 -28 -120 l-4 -99 -99 -4 c-143 -4 -138
5 -139 -265 l0 -213 -125 0 c-114 0 -125 2 -125 18 0 36 -43 143 -81 202 -72
112 -158 180 -285 227 -66 23 -181 38 -215 28 -28 -9 -52 -62 -45 -99 6 -33 9
-52 25 -156 6 -36 13 -76 16 -90 3 -14 8 -45 11 -70 3 -25 8 -48 11 -52 2 -5
-52 -8 -121 -8 -68 0 -132 -3 -141 -6 -35 -14 -45 -58 -45 -194 0 -143 11
-183 52 -194 13 -3 186 -6 386 -6 l362 0 0 -40 0 -40 -270 0 c-148 0 -273 -1
-277 -1 -113 -20 -240 -82 -313 -151 -46 -43 -100 -110 -100 -124 0 -4 -6 -15
-14 -23 -7 -9 -24 -47 -37 -86 l-24 -70 0 -992 c0 -939 1 -993 18 -1010 15
-16 41 -18 201 -21 l184 -3 6 -41 c9 -58 66 -175 111 -228 l38 -45 -254 -5
c-180 -4 -261 -9 -276 -18 -44 -25 -39 -105 8 -129 19 -10 510 -13 2282 -13
2487 0 2298 -5 2312 60 5 23 -12 80 -28 92 -1 1 -85 4 -186 7 l-184 6 37 44
c45 53 103 172 112 228 l6 42 265 3 264 3 19 25 c19 24 20 47 20 482 l0 457
-34 103 c-19 57 -73 216 -120 353 -278 817 -268 793 -359 885 -78 81 -207 148
-312 164 -16 2 -162 5 -322 5 l-293 1 0 40 0 40 525 0 c451 0 530 2 555 15 33
17 46 51 34 87 -9 30 -161 258 -187 281 -19 16 -65 17 -674 17 l-653 0 0 203
c0 111 -3 212 -6 225 -10 37 -53 52 -148 52 l-84 0 -4 100 c-4 140 5 134 -220
138 -100 2 -192 1 -205 -2 -37 -10 -53 -55 -53 -151 l0 -85 -159 0 -159 0 -4
100 c-4 141 6 134 -231 138 -178 2 -194 1 -217 -17z m1730 -1141 l0 -40 -1080
0 -1080 0 0 40 0 40 1080 0 1080 0 0 -40z m-70 -2538 c0 -58 73 -210 130 -270
12 -13 20 -25 18 -28 -3 -2 -472 -3 -1043 -2 -923 3 -1037 5 -1024 18 58 62
123 186 135 259 l7 41 888 0 c850 0 889 -1 889 -18z"/>
<path d="M4830 621 c-30 -24 -35 -91 -8 -117 19 -19 100 -30 151 -20 71 13 89
109 27 141 -42 22 -139 19 -170 -4z"/>
</g>
</svg>
